<svg viewBox="0 0 1920 1080" xmlns="http://www.w3.org/2000/svg">
  <defs>
    <linearGradient id="gradient" x1="0%" y1="0%" x2="100%" y2="100%">
      <stop offset="0%" stop-color="#003366" />
      <stop offset="100%" stop-color="#0066cc" />
    </linearGradient>
  </defs>
  
  <rect x="0" y="0" width="100%" height="100%" fill="url(#gradient)" />
  
  <g transform="translate(960, 540)">
    <circle cx="0" cy="0" r="200" fill="#ffffff" opacity="0.1" />
    <circle cx="0" cy="0" r="150" fill="#ffffff" opacity="0.2" />
    <circle cx="0" cy="0" r="100" fill="#ffffff" opacity="0.3" />
    <circle cx="0" cy="0" r="50" fill="#ffffff" opacity="0.4" />
  </g>

  <g transform="translate(1500, 300)">
    <circle cx="0" cy="0" r="160" fill="#ffffff" opacity="0.1" />
    <circle cx="0" cy="0" r="120" fill="#ffffff" opacity="0.2" />
    <circle cx="0" cy="0" r="80" fill="#ffffff" opacity="0.3" />
    <circle cx="0" cy="0" r="40" fill="#ffffff" opacity="0.4" />
  </g>
  
  <g transform="translate(480, 270)">
    <circle cx="0" cy="0" r="150" fill="#ffffff" opacity="0.1" />
    <circle cx="0" cy="0" r="100" fill="#ffffff" opacity="0.2" />
    <circle cx="0" cy="0" r="50" fill="#ffffff" opacity="0.3" />
  </g>
  
  <g transform="translate(1440, 810)">
    <circle cx="0" cy="0" r="150" fill="#ffffff" opacity="0.1" />
    <circle cx="0" cy="0" r="100" fill="#ffffff" opacity="0.2" />
    <circle cx="0" cy="0" r="50" fill="#ffffff" opacity="0.3" />
  </g>

  <g transform="translate(380, 710)">
    <circle cx="0" cy="0" r="90" fill="#ffffff" opacity="0.1" />
    <circle cx="0" cy="0" r="60" fill="#ffffff" opacity="0.2" />
    <circle cx="0" cy="0" r="30" fill="#ffffff" opacity="0.3" />
  </g>

  <g transform="translate(1000, 200)">
    <circle cx="0" cy="0" r="90" fill="#ffffff" opacity="0.1" />
    <circle cx="0" cy="0" r="60" fill="#ffffff" opacity="0.2" />
    <circle cx="0" cy="0" r="30" fill="#ffffff" opacity="0.3" />
  </g>

  <g transform="translate(900, 900)">
    <circle cx="0" cy="0" r="120" fill="#ffffff" opacity="0.1" />
    <circle cx="0" cy="0" r="80" fill="#ffffff" opacity="0.2" />
    <circle cx="0" cy="0" r="40" fill="#ffffff" opacity="0.3" />
  </g>
</svg>